<?xml version="1.0" standalone="no"?>
<!DOCTYPE svg PUBLIC "-//W3C//DTD SVG 20010904//EN"
 "http://www.w3.org/TR/2001/REC-SVG-20010904/DTD/svg10.dtd">
<svg version="1.0" xmlns="http://www.w3.org/2000/svg"
 width="420.000000pt" height="420.000000pt" viewBox="0 0 420.000000 420.000000"
 preserveAspectRatio="xMidYMid meet">

<g transform="translate(0.000000,420.000000) scale(0.100000,-0.100000)"
fill="#000000" stroke="none">
<path d="M2465 3675 c-38 -7 -101 -23 -140 -36 -62 -22 -75 -23 -115 -13 -159
43 -346 -21 -490 -165 -43 -43 -84 -96 -95 -121 -11 -25 -31 -57 -44 -72 -36
-41 -120 -167 -148 -223 -32 -62 -74 -229 -104 -408 -20 -124 -25 -140 -45
-147 -29 -11 -40 -46 -23 -77 10 -19 11 -35 1 -80 -14 -67 -17 -71 -40 -50
-10 10 -22 17 -25 17 -15 0 -5 -34 18 -62 16 -18 25 -42 25 -62 0 -18 5 -57
10 -86 9 -50 -3 -266 -16 -280 -3 -2 -15 2 -27 9 -20 13 -21 13 -8 -2 7 -10
19 -17 26 -17 8 0 16 -36 23 -110 19 -179 68 -295 207 -479 100 -132 196 -221
287 -265 119 -56 183 -69 333 -63 115 4 140 8 220 37 170 61 359 170 456 261
26 24 93 97 149 163 102 117 104 118 139 113 34 -6 35 -5 16 9 -19 14 -19 15
4 82 34 95 115 253 143 279 13 12 39 29 59 37 20 8 41 22 48 30 11 13 9 16
-12 21 -35 9 -77 -15 -131 -77 -43 -50 -46 -52 -46 -26 0 67 45 200 62 182 9
-9 55 198 77 348 12 79 21 187 21 256 0 110 -3 131 -41 261 -38 134 -40 143
-25 166 9 14 29 27 44 31 96 21 100 34 34 135 -91 139 -204 221 -397 288 -49
18 -90 33 -92 34 -1 2 11 23 27 47 17 25 30 48 30 51 0 11 -95 48 -162 64 -75
18 -138 18 -233 0z m-530 -621 c61 -14 151 -33 200 -43 50 -10 110 -28 135
-41 73 -36 211 -129 271 -181 31 -27 61 -49 67 -49 6 0 18 36 28 80 10 44 23
80 30 80 6 0 47 -38 91 -85 44 -47 87 -85 96 -85 17 0 53 40 62 71 5 16 9 18
21 8 30 -25 126 -181 129 -212 3 -18 6 -109 9 -203 5 -166 4 -174 -23 -260
-16 -49 -33 -100 -39 -114 -6 -14 -18 -70 -27 -125 -37 -227 -61 -296 -155
-452 -131 -215 -246 -317 -513 -453 l-128 -65 -117 0 c-190 1 -343 54 -443
154 -158 159 -294 400 -334 595 -18 91 -22 293 -6 309 8 8 11 -4 11 -40 0 -41
5 -58 26 -83 39 -45 95 -70 172 -76 l67 -5 -66 19 c-93 26 -146 66 -169 127
l-11 30 23 -22 c13 -12 50 -34 83 -50 53 -24 72 -28 160 -28 89 0 105 3 150
27 66 35 159 136 185 200 5 13 9 16 9 8 1 -30 -20 -87 -50 -135 -17 -27 -24
-43 -15 -36 28 23 67 104 86 176 10 39 21 77 25 86 3 10 2 20 -4 24 -6 3 -11
20 -11 36 0 23 6 32 28 40 45 18 145 5 198 -26 44 -26 46 -29 38 -59 -5 -17
-9 -83 -8 -146 0 -93 5 -126 22 -170 27 -68 83 -127 159 -167 155 -82 318 -67
439 39 l37 33 -7 -30 c-21 -87 -95 -140 -237 -169 l-74 -15 75 4 c90 5 136 18
180 48 51 34 70 67 81 142 6 39 18 78 28 88 11 13 20 53 27 124 10 96 13 107
38 127 21 16 27 29 24 50 -3 25 -15 33 -123 82 -202 92 -341 119 -481 94 -97
-17 -102 -19 -109 -40 -10 -31 -32 -30 -96 3 -58 30 -70 32 -161 32 l-98 1
-25 36 c-21 31 -104 96 -127 99 -12 2 -18 4 -83 25 -47 14 -90 19 -192 19
l-133 0 0 28 c0 58 59 236 115 348 46 91 119 163 183 183 69 21 134 19 257
-10z m-294 -598 c71 -15 169 -53 169 -66 0 -4 8 -10 18 -12 20 -6 82 -93 82
-116 0 -13 -2 -13 -17 0 -39 33 -151 87 -205 98 -76 15 -157 -5 -237 -59 -102
-70 -134 -119 -112 -175 7 -17 9 -15 20 15 24 69 94 150 78 90 -2 -10 -1 -25
4 -32 7 -11 9 -10 9 4 0 29 90 111 136 125 49 14 103 15 124 2 12 -8 9 -10
-14 -10 -42 0 -100 -37 -121 -76 -12 -22 -19 -54 -18 -85 1 -86 64 -141 158
-138 17 1 22 3 13 6 -28 7 -21 30 13 42 37 13 55 5 38 -15 -9 -12 -9 -13 3 -9
46 18 80 117 60 175 -15 42 3 29 28 -20 27 -53 26 -67 -15 -136 -74 -125 -175
-183 -294 -170 -83 9 -123 22 -172 58 -24 18 -47 33 -51 33 -3 0 -10 4 -15 9
-5 5 -3 6 5 2 16 -9 15 0 -2 32 -24 44 -34 86 -30 125 2 20 -1 37 -5 37 -10 0
-3 64 10 95 6 13 7 1 4 -35 l-4 -55 10 55 c5 30 12 70 15 88 6 39 57 100 99
118 39 17 134 17 216 0z m234 -76 c10 -11 16 -20 13 -20 -3 0 -13 9 -23 20
-10 11 -16 20 -13 20 3 0 13 -9 23 -20z m732 -66 c-3 -3 -12 -4 -19 -1 -8 3
-5 6 6 6 11 1 17 -2 13 -5z m105 -55 c37 -11 69 -23 72 -28 5 -8 -138 31 -179
50 -30 13 25 2 107 -22z m-1028 -11 c8 -14 7 -21 -6 -34 -30 -30 -75 9 -48 42
16 18 39 15 54 -8z m640 -17 c3 -5 -3 -11 -15 -14 -16 -4 -18 -3 -8 9 13 16
16 17 23 5z m-427 -43 c-3 -8 -6 -5 -6 6 -1 11 2 17 5 13 3 -3 4 -12 1 -19z
m385 -20 c-8 -8 -9 -4 -5 13 4 13 8 18 11 10 2 -7 -1 -18 -6 -23z m299 -2
c126 -23 188 -64 256 -168 l45 -71 -18 -45 c-21 -55 -82 -124 -130 -147 -19
-9 -32 -19 -30 -24 3 -4 -41 -5 -97 -4 -123 4 -157 7 -151 12 2 2 -18 17 -45
32 -56 32 -97 77 -122 135 -21 47 -34 141 -25 178 8 31 62 95 90 106 32 13
142 11 227 -4z m298 -28 c17 -54 24 -115 14 -132 -7 -13 -15 -7 -47 34 -21 27
-53 63 -72 80 l-35 30 50 0 c27 0 53 5 56 10 11 18 23 10 34 -22z m-262 -454
c-3 -3 -12 -4 -19 -1 -8 3 -5 6 6 6 11 1 17 -2 13 -5z"/>
<path d="M1566 2626 c-54 -20 -90 -49 -94 -75 -4 -26 17 -28 78 -6 86 30 179
14 273 -49 47 -31 59 -35 76 -26 51 27 14 77 -99 135 -67 34 -173 44 -234 21z"/>
<path d="M1859 1755 c-7 -52 1 -84 32 -114 38 -38 118 -65 173 -58 53 7 96 53
96 100 l-1 32 -22 -26 c-31 -37 -59 -49 -112 -49 -86 0 -143 40 -155 108 -6
37 -6 37 -11 7z"/>
<path d="M2387 1649 c12 -12 25 -20 28 -17 3 3 -7 13 -22 23 l-28 17 22 -23z"/>
<path d="M2455 1610 c3 -5 11 -10 16 -10 6 0 7 5 4 10 -3 6 -11 10 -16 10 -6
0 -7 -4 -4 -10z"/>
<path d="M2546 1591 c-3 -4 6 -6 19 -3 14 2 25 6 25 8 0 8 -39 4 -44 -5z"/>
<path d="M1680 1502 c0 -13 51 -85 89 -125 45 -49 118 -100 131 -92 11 7 61
-5 56 -14 -2 -3 19 -4 46 -2 35 2 48 0 44 -8 -14 -22 95 -11 185 19 105 35
154 64 201 119 20 24 44 41 56 41 31 0 36 16 12 40 -26 26 -54 22 -58 -6 -4
-27 -35 -34 -146 -34 -129 0 -301 18 -441 45 -135 26 -175 30 -175 17z m248
-72 c57 -13 72 -25 20 -16 -47 7 -70 13 -98 25 l-25 11 25 -4 c14 -3 49 -10
78 -16z"/>
<path d="M2230 1212 c-30 -14 -91 -34 -135 -44 l-80 -18 65 4 c64 4 151 35
195 70 27 21 20 19 -45 -12z"/>
<path d="M1877 1189 c7 -7 15 -10 18 -7 3 3 -2 9 -12 12 -14 6 -15 5 -6 -5z"/>
<path d="M2292 1993 c3 -16 13 -18 73 -15 61 3 128 -2 325 -23 l45 -5 -57 20
c-74 25 -188 40 -299 40 -81 0 -90 -2 -87 -17z"/>
<path d="M2748 1943 c7 -3 16 -2 19 1 4 3 -2 6 -13 5 -11 0 -14 -3 -6 -6z"/>
<path d="M3131 1474 c-19 -13 -29 -24 -23 -24 6 0 24 11 39 25 35 31 28 31
-16 -1z"/>
</g>
</svg>
